<svg width="22" height="24" viewBox="0 0 22 24" fill="none" xmlns="http://www.w3.org/2000/svg">
<path d="M8.83717 1.78937C9.01149 1.35853 9.31049 0.989567 9.69586 0.729769C10.0812 0.469971 10.5354 0.331177 11.0002 0.331177C11.4649 0.331177 11.9191 0.469971 12.3045 0.729769C12.6899 0.989567 12.9889 1.35853 13.1632 1.78937C14.8884 2.26383 16.4101 3.29152 17.4947 4.71459C18.5793 6.13767 19.1668 7.87743 19.1668 9.6667V15.1465L21.3042 18.3525C21.4214 18.5282 21.4887 18.7325 21.499 18.9434C21.5092 19.1544 21.462 19.3642 21.3624 19.5504C21.2627 19.7367 21.1144 19.8923 20.9332 20.0009C20.752 20.1094 20.5447 20.1667 20.3335 20.1667H15.0427C14.9022 21.1387 14.4162 22.0275 13.6738 22.6703C12.9314 23.3131 11.9822 23.667 11.0002 23.667C10.0181 23.667 9.06894 23.3131 8.32652 22.6703C7.5841 22.0275 7.09814 21.1387 6.95767 20.1667H1.66684C1.45562 20.1667 1.24836 20.1094 1.06716 20.0009C0.885967 19.8923 0.737633 19.7367 0.637988 19.5504C0.538344 19.3642 0.491127 19.1544 0.501374 18.9434C0.511622 18.7325 0.578949 18.5282 0.696175 18.3525L2.83351 15.1465V9.6667C2.83351 5.90537 5.37684 2.7367 8.83717 1.78937ZM9.35051 20.1667C9.471 20.5081 9.69442 20.8038 9.98998 21.0129C10.2855 21.222 10.6387 21.3343 11.0008 21.3343C11.3628 21.3343 11.716 21.222 12.0115 21.0129C12.3071 20.8038 12.5305 20.5081 12.651 20.1667H9.34934H9.35051ZM11.0002 3.83337C9.45308 3.83337 7.96935 4.44795 6.87538 5.54191C5.78142 6.63587 5.16684 8.1196 5.16684 9.6667V15.5C5.16689 15.7305 5.09869 15.9558 4.97084 16.1475L3.84734 17.8334H18.1518L17.0283 16.1475C16.9009 15.9557 16.8331 15.7304 16.8335 15.5V9.6667C16.8335 8.1196 16.2189 6.63587 15.125 5.54191C14.031 4.44795 12.5473 3.83337 11.0002 3.83337Z" fill="white"/>
</svg>
