<svg width="18" height="17" viewBox="0 0 18 17" fill="none" xmlns="http://www.w3.org/2000/svg">
<path d="M3.01275 12.3808C3.12952 12.498 3.219 12.6395 3.27481 12.7953C3.33062 12.951 3.35138 13.1172 3.33562 13.2819C3.25656 14.0442 3.10666 14.7974 2.88787 15.5319C4.45725 15.1685 5.41575 14.7478 5.85113 14.5273C6.09807 14.4022 6.38245 14.3725 6.64987 14.444C7.41649 14.6484 8.20661 14.7513 9 14.75C13.4955 14.75 16.875 11.5921 16.875 8C16.875 4.409 13.4955 1.25 9 1.25C4.5045 1.25 1.125 4.409 1.125 8C1.125 9.6515 1.81912 11.1838 3.01275 12.3808ZM2.45812 16.7739C2.19158 16.8267 1.92416 16.8751 1.656 16.919C1.431 16.955 1.26 16.721 1.34888 16.5118C1.44877 16.2762 1.54032 16.0372 1.62337 15.7951L1.62675 15.7839C1.90575 14.9739 2.133 14.0424 2.21625 13.175C0.835875 11.7913 0 9.98 0 8C0 3.65075 4.02975 0.125 9 0.125C13.9703 0.125 18 3.65075 18 8C18 12.3493 13.9703 15.875 9 15.875C8.10861 15.8762 7.22091 15.7605 6.35962 15.5308C5.77462 15.8266 4.51575 16.3655 2.45812 16.7739Z" fill="#64748B"/>
</svg>
