<svg width="28" height="26" viewBox="0 0 28 26" fill="none" xmlns="http://www.w3.org/2000/svg">
<path d="M15.116 14C16.0111 14 16.8695 14.3556 17.5025 14.9885C18.1354 15.6214 18.491 16.4799 18.491 17.375L18.4888 19.0591C18.7205 23.1912 15.5379 25.2523 9.635 25.2523C3.75237 25.2523 0.5 23.2183 0.5 19.1176V17.375C0.5 16.4799 0.855579 15.6214 1.48851 14.9885C2.12145 14.3556 2.97989 14 3.875 14H15.116ZM24.116 14C25.0111 14 25.8695 14.3556 26.5025 14.9885C27.1354 15.6214 27.491 16.4799 27.491 17.375V18.5596C27.6935 22.2665 24.881 24.125 19.7409 24.125C19.0434 24.125 18.3875 24.0912 17.7744 24.0238C18.4233 23.4319 18.9209 22.6931 19.2256 21.8694L19.7409 21.875C23.756 21.875 25.3603 20.8141 25.2421 18.6215V17.375C25.2421 17.0766 25.1236 16.7905 24.9126 16.5795C24.7016 16.3685 24.4155 16.25 24.1171 16.25H19.4742C19.2485 15.3784 18.7665 14.5946 18.0905 14H24.1171H24.116ZM15.116 16.25H3.875C3.57663 16.25 3.29048 16.3685 3.0795 16.5795C2.86853 16.7905 2.75 17.0766 2.75 17.375V19.1187C2.75 21.6961 4.838 23.0023 9.635 23.0023C14.414 23.0023 16.385 21.7254 16.241 19.121V17.375C16.241 17.0766 16.1225 16.7905 15.9115 16.5795C15.7005 16.3685 15.4144 16.25 15.116 16.25ZM9.5 0.5C10.9921 0.5 12.4232 1.09275 13.4783 2.14785C14.5334 3.20296 15.1261 4.63398 15.1261 6.12613C15.1261 7.61827 14.5334 9.04929 13.4783 10.1044C12.4232 11.1595 10.9921 11.7522 9.5 11.7522C8.00786 11.7522 6.57683 11.1595 5.52173 10.1044C4.46663 9.04929 3.87388 7.61827 3.87388 6.12613C3.87388 4.63398 4.46663 3.20296 5.52173 2.14785C6.57683 1.09275 8.00786 0.5 9.5 0.5ZM20.75 2.75C21.9435 2.75 23.0881 3.22411 23.932 4.06802C24.7759 4.91193 25.25 6.05653 25.25 7.25C25.25 8.44347 24.7759 9.58807 23.932 10.432C23.0881 11.2759 21.9435 11.75 20.75 11.75C19.5565 11.75 18.4119 11.2759 17.568 10.432C16.7241 9.58807 16.25 8.44347 16.25 7.25C16.25 6.05653 16.7241 4.91193 17.568 4.06802C18.4119 3.22411 19.5565 2.75 20.75 2.75ZM9.5 2.75C9.05664 2.75 8.61762 2.83733 8.20801 3.00699C7.7984 3.17666 7.42622 3.42534 7.11272 3.73884C6.79922 4.05235 6.55053 4.42453 6.38087 4.83414C6.2112 5.24375 6.12387 5.68277 6.12387 6.12613C6.12387 6.56948 6.2112 7.0085 6.38087 7.41811C6.55053 7.82772 6.79922 8.1999 7.11272 8.51341C7.42622 8.82691 7.7984 9.07559 8.20801 9.24526C8.61762 9.41492 9.05664 9.50225 9.5 9.50225C10.3954 9.50225 11.2541 9.14655 11.8873 8.51341C12.5204 7.88026 12.8761 7.02153 12.8761 6.12613C12.8761 5.23072 12.5204 4.37199 11.8873 3.73884C11.2541 3.1057 10.3954 2.75 9.5 2.75ZM20.75 5C20.1533 5 19.581 5.23705 19.159 5.65901C18.7371 6.08097 18.5 6.65326 18.5 7.25C18.5 7.84674 18.7371 8.41903 19.159 8.84099C19.581 9.26295 20.1533 9.5 20.75 9.5C21.3467 9.5 21.919 9.26295 22.341 8.84099C22.7629 8.41903 23 7.84674 23 7.25C23 6.65326 22.7629 6.08097 22.341 5.65901C21.919 5.23705 21.3467 5 20.75 5Z" fill="white"/>
</svg>
