<svg width="18" height="16" viewBox="0 0 18 16" fill="none" xmlns="http://www.w3.org/2000/svg">
<path d="M9.00016 15.644L8.68816 15.384C1.98016 9.92395 0.160156 7.99995 0.160156 4.87995C0.160156 2.27995 2.24016 0.199951 4.84016 0.199951C6.97216 0.199951 8.16816 1.39595 9.00016 2.33195C9.83216 1.39595 11.0282 0.199951 13.1602 0.199951C15.7602 0.199951 17.8402 2.27995 17.8402 4.87995C17.8402 7.99995 16.0202 9.92395 9.31216 15.384L9.00016 15.644ZM4.84016 1.23995C2.81216 1.23995 1.20016 2.85195 1.20016 4.87995C1.20016 7.53195 2.86416 9.29995 9.00016 14.292C15.1362 9.29995 16.8002 7.53195 16.8002 4.87995C16.8002 2.85195 15.1882 1.23995 13.1602 1.23995C11.3402 1.23995 10.3522 2.33195 9.57216 3.21595L9.00016 3.89195L8.42816 3.21595C7.64816 2.33195 6.66016 1.23995 4.84016 1.23995Z" fill="#64748B"/>
</svg>
