<svg width="78" height="78" viewBox="0 0 78 78" fill="none" xmlns="http://www.w3.org/2000/svg">
<path d="M4 39H0.5H4ZM17.125 39H13.625H17.125ZM39 60.875V64.375V60.875ZM60.875 39H64.375H60.875ZM39 0.5C28.7892 0.5 18.9965 4.55624 11.7764 11.7764L16.7261 16.7261C22.6335 10.8187 30.6457 7.5 39 7.5V0.5ZM11.7764 11.7764C4.55624 18.9965 0.5 28.7892 0.5 39H7.5C7.5 30.6457 10.8187 22.6335 16.7261 16.7261L11.7764 11.7764ZM0.5 39C0.5 49.2108 4.55624 59.0035 11.7764 66.2236L16.7261 61.2739C10.8187 55.3665 7.5 47.3543 7.5 39H0.5ZM11.7764 66.2236C18.9965 73.4438 28.7892 77.5 39 77.5V70.5C30.6457 70.5 22.6335 67.1813 16.7261 61.2739L11.7764 66.2236ZM39 77.5C49.2108 77.5 59.0035 73.4438 66.2236 66.2236L61.2739 61.2739C55.3665 67.1813 47.3543 70.5 39 70.5V77.5ZM66.2236 66.2236C73.4438 59.0035 77.5 49.2108 77.5 39H70.5C70.5 47.3543 67.1813 55.3665 61.2739 61.2739L66.2236 66.2236ZM77.5 39C77.5 28.7892 73.4438 18.9965 66.2236 11.7764L61.2739 16.7261C67.1813 22.6335 70.5 30.6457 70.5 39H77.5ZM66.2236 11.7764C59.0035 4.55624 49.2108 0.5 39 0.5V7.5C47.3543 7.5 55.3665 10.8187 61.2739 16.7261L66.2236 11.7764ZM39 13.625C32.2701 13.625 25.8159 16.2984 21.0572 21.0572L26.0069 26.0069C29.4529 22.5609 34.1266 20.625 39 20.625V13.625ZM21.0572 21.0572C16.2984 25.8159 13.625 32.2701 13.625 39H20.625C20.625 34.1266 22.5609 29.4529 26.0069 26.0069L21.0572 21.0572ZM13.625 39C13.625 45.7299 16.2984 52.1841 21.0572 56.9428L26.0069 51.9931C22.5609 48.5471 20.625 43.8734 20.625 39H13.625ZM21.0572 56.9428C25.8159 61.7016 32.2701 64.375 39 64.375V57.375C34.1266 57.375 29.4529 55.4391 26.0069 51.9931L21.0572 56.9428ZM39 64.375C45.7299 64.375 52.1841 61.7016 56.9428 56.9428L51.9931 51.9931C48.5471 55.4391 43.8734 57.375 39 57.375V64.375ZM56.9428 56.9428C61.7016 52.1841 64.375 45.7299 64.375 39H57.375C57.375 43.8734 55.4391 48.5471 51.9931 51.9931L56.9428 56.9428ZM64.375 39C64.375 32.2701 61.7016 25.8159 56.9428 21.0572L51.9931 26.0069C55.4391 29.4529 57.375 34.1266 57.375 39H64.375ZM56.9428 21.0572C52.1841 16.2984 45.7299 13.625 39 13.625V20.625C43.8734 20.625 48.5471 22.5609 51.9931 26.0069L56.9428 21.0572ZM23.6886 18.767C15.7822 25.0921 11.1874 32.842 10.3581 41.9644C9.54046 50.9587 12.428 60.8034 18.4611 71.3615L24.5389 67.8885C18.9054 58.0299 16.6887 49.6455 17.3294 42.5981C17.9584 35.6788 21.3845 29.5746 28.0614 24.233L23.6886 18.767ZM54.3114 59.233C62.2031 52.9197 66.81 45.2536 67.6416 36.1957C68.461 27.2705 65.5664 17.5008 59.5389 6.95252L53.4611 10.4255C59.1002 20.2939 61.3098 28.5964 60.6709 35.5558C60.0442 42.3826 56.6303 48.4136 49.9386 53.767L54.3114 59.233Z" fill="#7345FF"/>
</svg>
