<svg width="16" height="19" viewBox="0 0 16 19" fill="none" xmlns="http://www.w3.org/2000/svg">
<path d="M15.0667 8.45002C15.2062 8.44998 15.3412 8.49509 15.4484 8.5775C15.5555 8.65991 15.6279 8.77439 15.653 8.90102L15.6626 9.00002V15.6C15.6627 16.2982 15.3751 16.9703 14.8581 17.48C14.3412 17.9896 13.6336 18.2987 12.8788 18.3445L12.6834 18.35H3.15007C2.39369 18.3501 1.66559 18.0847 1.11345 17.6075C0.561314 17.1303 0.226476 16.4771 0.176858 15.7804L0.170899 15.6V9.00002C0.170625 8.86258 0.226108 8.73002 0.326422 8.62846C0.426735 8.52689 0.56461 8.46367 0.712895 8.45126C0.861181 8.43884 1.00913 8.47812 1.12761 8.56136C1.24609 8.6446 1.32651 8.76578 1.35303 8.90102L1.36257 9.00002V15.6C1.36259 16.0102 1.52811 16.4056 1.82686 16.7093C2.12561 17.0129 2.53617 17.2029 2.97847 17.2423L3.15007 17.25H12.6834C13.1276 17.25 13.5558 17.0974 13.8847 16.8218C14.2136 16.5463 14.4196 16.1676 14.4626 15.7595L14.4709 15.6V9.00002C14.4709 8.85415 14.5337 8.71425 14.6454 8.61111C14.7572 8.50796 14.9087 8.45002 15.0667 8.45002ZM2.43983 5.02902L7.49488 0.360619C7.59362 0.269677 7.72379 0.213591 7.86272 0.202134C8.00165 0.190677 8.14053 0.224573 8.25517 0.297919L8.33858 0.360619L13.3936 5.02792C13.4992 5.12493 13.5616 5.25491 13.5685 5.39226C13.5753 5.52961 13.5262 5.66437 13.4308 5.76996C13.3354 5.87555 13.2006 5.94433 13.053 5.96274C12.9054 5.98115 12.7557 5.94786 12.6334 5.86942L12.5511 5.80562L8.51257 2.07772V12.3C8.51261 12.4287 8.46374 12.5534 8.37446 12.6523C8.28519 12.7512 8.16116 12.818 8.02398 12.8412L7.91673 12.85C7.77728 12.8501 7.64222 12.8049 7.53509 12.7225C7.42796 12.6401 7.35554 12.5256 7.33043 12.399L7.3209 12.3V2.07772L3.28115 5.80672C3.18249 5.89738 3.05255 5.95329 2.91388 5.96475C2.77522 5.9762 2.63659 5.94247 2.52206 5.86942L2.43864 5.80562C2.34012 5.71448 2.27936 5.59432 2.26695 5.46608C2.25454 5.33784 2.29126 5.20964 2.37072 5.10382L2.43983 5.02792L7.49488 0.360619L2.43983 5.02902Z" fill="#64748B"/>
</svg>
